{
    "asset" : {
        "generator" : "Khronos glTF Blender I/O v1.5.17",
        "version" : "2.0"
    },
    "scene" : 0,
    "scenes" : [
        {
            "name" : "Scene",
            "nodes" : [
                0,
                2
            ]
        }
    ],
    "nodes" : [
        {
            "name" : "Path",
            "scale" : [
                0.02539999969303608,
                0.02539999969303608,
                0.02539999969303608
            ],
            "translation" : [
                -3.8498778343200684,
                24.04384994506836,
                4.904912948608398
            ]
        },
        {
            "mesh" : 0,
            "name" : "Pad_collider"
        },
        {
            "children" : [
                1
            ],
            "mesh" : 1,
            "name" : "Pad",
            "scale" : [
                0.694444477558136,
                1,
                2.451765537261963
            ],
            "translation" : [
                22.250274658203125,
                0.5000114440917969,
                9.503219604492188
            ]
        }
    ],
    "animations" : [
        {
            "channels" : [
                {
                    "sampler" : 0,
                    "target" : {
                        "node" : 2,
                        "path" : "translation"
                    }
                },
                {
                    "sampler" : 1,
                    "target" : {
                        "node" : 2,
                        "path" : "rotation"
                    }
                },
                {
                    "sampler" : 2,
                    "target" : {
                        "node" : 2,
                        "path" : "scale"
                    }
                }
            ],
            "name" : "Pad.001Action.002",
            "samplers" : [
                {
                    "input" : 14,
                    "interpolation" : "LINEAR",
                    "output" : 15
                },
                {
                    "input" : 14,
                    "interpolation" : "LINEAR",
                    "output" : 16
                },
                {
                    "input" : 14,
                    "interpolation" : "LINEAR",
                    "output" : 17
                }
            ]
        }
    ],
    "materials" : [
        {
            "doubleSided" : true,
            "name" : "Metal(cnwhc.com)\u62c9\u4e1d\u9ec4\u91d1_5cm.006",
            "pbrMetallicRoughness" : {
                "baseColorFactor" : [
                    0.8277000188827515,
                    0.5479999780654907,
                    0,
                    1
                ],
                "metallicFactor" : 0.75,
                "roughnessFactor" : 0
            }
        },
        {
            "doubleSided" : true,
            "emissiveFactor" : [
                1,
                0,
                0.9761323928833008
            ],
            "name" : "\u6750\u659922.005",
            "pbrMetallicRoughness" : {
                "baseColorFactor" : [
                    1,
                    0.0027479911223053932,
                    0.07301192730665207,
                    1
                ],
                "metallicFactor" : 0.10000000149011612,
                "roughnessFactor" : 0.8999999761581421
            }
        },
        {
            "doubleSided" : true,
            "name" : "Metal(cnwhc.com)\u62c9\u4e1d\u9ec4\u91d1_5cm.001",
            "pbrMetallicRoughness" : {
                "baseColorFactor" : [
                    0.8277000188827515,
                    0.5479999780654907,
                    0,
                    1
                ],
                "metallicFactor" : 0.75,
                "roughnessFactor" : 0
            }
        },
        {
            "doubleSided" : true,
            "emissiveFactor" : [
                1,
                0,
                0.9761323928833008
            ],
            "name" : "\u6750\u659922.001",
            "pbrMetallicRoughness" : {
                "baseColorFactor" : [
                    1,
                    0.0027479911223053932,
                    0.07301192730665207,
                    1
                ],
                "metallicFactor" : 0.10000000149011612,
                "roughnessFactor" : 0.8999999761581421
            }
        }
    ],
    "meshes" : [
        {
            "name" : "Mesh_0.017",
            "primitives" : [
                {
                    "attributes" : {
                        "POSITION" : 0,
                        "NORMAL" : 1,
                        "TEXCOORD_0" : 2
                    },
                    "indices" : 3,
                    "material" : 0
                },
                {
                    "attributes" : {
                        "POSITION" : 4,
                        "NORMAL" : 5,
                        "TEXCOORD_0" : 6
                    },
                    "indices" : 7,
                    "material" : 1
                }
            ]
        },
        {
            "name" : "Mesh_0.005",
            "primitives" : [
                {
                    "attributes" : {
                        "POSITION" : 8,
                        "NORMAL" : 9,
                        "TEXCOORD_0" : 10
                    },
                    "indices" : 3,
                    "material" : 2
                },
                {
                    "attributes" : {
                        "POSITION" : 11,
                        "NORMAL" : 12,
                        "TEXCOORD_0" : 13
                    },
                    "indices" : 7,
                    "material" : 3
                }
            ]
        }
    ],
    "accessors" : [
        {
            "bufferView" : 0,
            "componentType" : 5126,
            "count" : 868,
            "max" : [
                2.1022748947143555,
                0.30217382311820984,
                0.6146631240844727
            ],
            "min" : [
                -2.2177248001098633,
                0.09967345744371414,
                -0.6089448928833008
            ],
            "type" : "VEC3"
        },
        {
            "bufferView" : 1,
            "componentType" : 5126,
            "count" : 868,
            "type" : "VEC3"
        },
        {
            "bufferView" : 2,
            "componentType" : 5126,
            "count" : 868,
            "type" : "VEC2"
        },
        {
            "bufferView" : 3,
            "componentType" : 5123,
            "count" : 1302,
            "type" : "SCALAR"
        },
        {
            "bufferView" : 4,
            "componentType" : 5126,
            "count" : 129,
            "max" : [
                1.5611162185668945,
                0.30217382311820984,
                0.4613838195800781
            ],
            "min" : [
                -1.6765661239624023,
                0.30217382311820984,
                -0.45566558837890625
            ],
            "type" : "VEC3"
        },
        {
            "bufferView" : 5,
            "componentType" : 5126,
            "count" : 129,
            "type" : "VEC3"
        },
        {
            "bufferView" : 6,
            "componentType" : 5126,
            "count" : 129,
            "type" : "VEC2"
        },
        {
            "bufferView" : 7,
            "componentType" : 5123,
            "count" : 138,
            "type" : "SCALAR"
        },
        {
            "bufferView" : 8,
            "componentType" : 5126,
            "count" : 868,
            "max" : [
                2.1022748947143555,
                0.30217382311820984,
                0.6146631240844727
            ],
            "min" : [
                -2.2177248001098633,
                0.09967345744371414,
                -0.6089448928833008
            ],
            "type" : "VEC3"
        },
        {
            "bufferView" : 9,
            "componentType" : 5126,
            "count" : 868,
            "type" : "VEC3"
        },
        {
            "bufferView" : 10,
            "componentType" : 5126,
            "count" : 868,
            "type" : "VEC2"
        },
        {
            "bufferView" : 11,
            "componentType" : 5126,
            "count" : 129,
            "max" : [
                1.5611162185668945,
                0.30217382311820984,
                0.4613838195800781
            ],
            "min" : [
                -1.6765661239624023,
                0.30217382311820984,
                -0.45566558837890625
            ],
            "type" : "VEC3"
        },
        {
            "bufferView" : 12,
            "componentType" : 5126,
            "count" : 129,
            "type" : "VEC3"
        },
        {
            "bufferView" : 13,
            "componentType" : 5126,
            "count" : 129,
            "type" : "VEC2"
        },
        {
            "bufferView" : 14,
            "componentType" : 5126,
            "count" : 6996,
            "max" : [
                291.5
            ],
            "min" : [
                0.041666666666666664
            ],
            "type" : "SCALAR"
        },
        {
            "bufferView" : 15,
            "componentType" : 5126,
            "count" : 6996,
            "type" : "VEC3"
        },
        {
            "bufferView" : 16,
            "componentType" : 5126,
            "count" : 6996,
            "type" : "VEC4"
        },
        {
            "bufferView" : 17,
            "componentType" : 5126,
            "count" : 6996,
            "type" : "VEC3"
        }
    ],
    "bufferViews" : [
        {
            "buffer" : 0,
            "byteLength" : 10416,
            "byteOffset" : 0
        },
        {
            "buffer" : 0,
            "byteLength" : 10416,
            "byteOffset" : 10416
        },
        {
            "buffer" : 0,
            "byteLength" : 6944,
            "byteOffset" : 20832
        },
        {
            "buffer" : 0,
            "byteLength" : 2604,
            "byteOffset" : 27776
        },
        {
            "buffer" : 0,
            "byteLength" : 1548,
            "byteOffset" : 30380
        },
        {
            "buffer" : 0,
            "byteLength" : 1548,
            "byteOffset" : 31928
        },
        {
            "buffer" : 0,
            "byteLength" : 1032,
            "byteOffset" : 33476
        },
        {
            "buffer" : 0,
            "byteLength" : 276,
            "byteOffset" : 34508
        },
        {
            "buffer" : 0,
            "byteLength" : 10416,
            "byteOffset" : 34784
        },
        {
            "buffer" : 0,
            "byteLength" : 10416,
            "byteOffset" : 45200
        },
        {
            "buffer" : 0,
            "byteLength" : 6944,
            "byteOffset" : 55616
        },
        {
            "buffer" : 0,
            "byteLength" : 1548,
            "byteOffset" : 62560
        },
        {
            "buffer" : 0,
            "byteLength" : 1548,
            "byteOffset" : 64108
        },
        {
            "buffer" : 0,
            "byteLength" : 1032,
            "byteOffset" : 65656
        },
        {
            "buffer" : 0,
            "byteLength" : 27984,
            "byteOffset" : 66688
        },
        {
            "buffer" : 0,
            "byteLength" : 83952,
            "byteOffset" : 94672
        },
        {
            "buffer" : 0,
            "byteLength" : 111936,
            "byteOffset" : 178624
        },
        {
            "buffer" : 0,
            "byteLength" : 83952,
            "byteOffset" : 290560
        }
    ],
    "buffers" : [
        {
            "byteLength" : 374512,
            "uri" : "data:application/octet-stream;base64,"
        }
    ]
}
