{
    "asset" : {
        "generator" : "Khronos glTF Blender I/O v1.5.17",
        "version" : "2.0"
    },
    "scene" : 0,
    "scenes" : [
        {
            "name" : "Scene",
            "nodes" : [
                0
            ]
        }
    ],
    "nodes" : [
        {
            "mesh" : 0,
            "name" : "root"
        }
    ],
    "materials" : [
        {
            "doubleSided" : true,
            "name" : "\u6750\u659925.002",
            "pbrMetallicRoughness" : {
                "baseColorFactor" : [
                    0.8277000188827515,
                    0.13040000200271606,
                    0,
                    1
                ],
                "metallicFactor" : 0.10000000149011612,
                "roughnessFactor" : 0.5
            }
        },
        {
            "doubleSided" : true,
            "emissiveFactor" : [
                0.1924351453781128,
                0.17650744318962097,
                0.01692219451069832
            ],
            "name" : "Goldshine.002",
            "pbrMetallicRoughness" : {
                "baseColorFactor" : [
                    0.8277000188827515,
                    0.5479999780654907,
                    0,
                    1
                ],
                "metallicFactor" : 0.10000000149011612,
                "roughnessFactor" : 0.5
            }
        },
        {
            "doubleSided" : true,
            "name" : "\u6750\u659924.002",
            "pbrMetallicRoughness" : {
                "baseColorFactor" : [
                    0,
                    0.45910000801086426,
                    0.8277000188827515,
                    1
                ],
                "metallicFactor" : 0.10000000149011612,
                "roughnessFactor" : 0.5
            }
        }
    ],
    "meshes" : [
        {
            "name" : "Mesh_0.002",
            "primitives" : [
                {
                    "attributes" : {
                        "POSITION" : 0,
                        "NORMAL" : 1
                    },
                    "indices" : 2,
                    "material" : 0
                },
                {
                    "attributes" : {
                        "POSITION" : 3,
                        "NORMAL" : 4
                    },
                    "indices" : 5,
                    "material" : 1
                },
                {
                    "attributes" : {
                        "POSITION" : 6,
                        "NORMAL" : 7
                    },
                    "indices" : 8,
                    "material" : 2
                }
            ]
        }
    ],
    "accessors" : [
        {
            "bufferView" : 0,
            "componentType" : 5126,
            "count" : 912,
            "max" : [
                -5.000007152557373,
                30.510000228881836,
                18.997854232788086
            ],
            "min" : [
                -11.000007629394531,
                30.5,
                -35.03059005737305
            ],
            "type" : "VEC3"
        },
        {
            "bufferView" : 1,
            "componentType" : 5126,
            "count" : 912,
            "type" : "VEC3"
        },
        {
            "bufferView" : 2,
            "componentType" : 5123,
            "count" : 2364,
            "type" : "SCALAR"
        },
        {
            "bufferView" : 3,
            "componentType" : 5126,
            "count" : 204,
            "max" : [
                11.030591011047363,
                50.0099983215332,
                18.999998092651367
            ],
            "min" : [
                -27.030590057373047,
                50.0099983215332,
                12.99999713897705
            ],
            "type" : "VEC3"
        },
        {
            "bufferView" : 4,
            "componentType" : 5126,
            "count" : 204,
            "type" : "VEC3"
        },
        {
            "bufferView" : 5,
            "componentType" : 5123,
            "count" : 594,
            "type" : "SCALAR"
        },
        {
            "bufferView" : 6,
            "componentType" : 5126,
            "count" : 915,
            "max" : [
                26.99999237060547,
                23.01010513305664,
                18.999998092651367
            ],
            "min" : [
                -27.030590057373047,
                23.000104904174805,
                12.99999713897705
            ],
            "type" : "VEC3"
        },
        {
            "bufferView" : 7,
            "componentType" : 5126,
            "count" : 915,
            "type" : "VEC3"
        },
        {
            "bufferView" : 8,
            "componentType" : 5123,
            "count" : 2373,
            "type" : "SCALAR"
        }
    ],
    "bufferViews" : [
        {
            "buffer" : 0,
            "byteLength" : 10944,
            "byteOffset" : 0
        },
        {
            "buffer" : 0,
            "byteLength" : 10944,
            "byteOffset" : 10944
        },
        {
            "buffer" : 0,
            "byteLength" : 4728,
            "byteOffset" : 21888
        },
        {
            "buffer" : 0,
            "byteLength" : 2448,
            "byteOffset" : 26616
        },
        {
            "buffer" : 0,
            "byteLength" : 2448,
            "byteOffset" : 29064
        },
        {
            "buffer" : 0,
            "byteLength" : 1188,
            "byteOffset" : 31512
        },
        {
            "buffer" : 0,
            "byteLength" : 10980,
            "byteOffset" : 32700
        },
        {
            "buffer" : 0,
            "byteLength" : 10980,
            "byteOffset" : 43680
        },
        {
            "buffer" : 0,
            "byteLength" : 4746,
            "byteOffset" : 54660
        }
    ],
    "buffers" : [
        {
            "byteLength" : 59408,
            "uri" : "data:application/octet-stream;base64,"
        }
    ]
}
