{
    "asset" : {
        "generator" : "Khronos glTF Blender I/O v1.7.33",
        "version" : "2.0"
    },
    "scene" : 0,
    "scenes" : [
        {
            "name" : "Scene",
            "nodes" : [
                0
            ]
        }
    ],
    "nodes" : [
        {
            "mesh" : 0,
            "name" : "Reward.007",
            "rotation" : [
                -0.6751660704612732,
                0,
                0,
                -0.7376657724380493
            ],
            "scale" : [
                0.019372990354895592,
                0.019372999668121338,
                0.019372999668121338
            ],
            "translation" : [
                15.809822082519531,
                2.2394282817840576,
                -5.37483549118042
            ]
        }
    ],
    "animations" : [
        {
            "channels" : [
                {
                    "sampler" : 0,
                    "target" : {
                        "node" : 0,
                        "path" : "rotation"
                    }
                }
            ],
            "name" : "MDP.001Action.012",
            "samplers" : [
                {
                    "input" : 4,
                    "interpolation" : "STEP",
                    "output" : 5
                }
            ]
        }
    ],
    "meshes" : [
        {
            "name" : "Mesh_0.086",
            "primitives" : [
                {
                    "attributes" : {
                        "POSITION" : 0,
                        "NORMAL" : 1,
                        "TEXCOORD_0" : 2
                    },
                    "indices" : 3
                }
            ]
        }
    ],
    "accessors" : [
        {
            "bufferView" : 0,
            "componentType" : 5126,
            "count" : 1494,
            "max" : [
                19.087329864501953,
                22.710708618164062,
                24.59817123413086
            ],
            "min" : [
                -19.698184967041016,
                -24.256723403930664,
                -26.961952209472656
            ],
            "type" : "VEC3"
        },
        {
            "bufferView" : 1,
            "componentType" : 5126,
            "count" : 1494,
            "type" : "VEC3"
        },
        {
            "bufferView" : 2,
            "componentType" : 5126,
            "count" : 1494,
            "type" : "VEC2"
        },
        {
            "bufferView" : 3,
            "componentType" : 5123,
            "count" : 1494,
            "type" : "SCALAR"
        },
        {
            "bufferView" : 4,
            "componentType" : 5126,
            "count" : 1,
            "max" : [
                33.4
            ],
            "min" : [
                33.4
            ],
            "type" : "SCALAR"
        },
        {
            "bufferView" : 5,
            "componentType" : 5126,
            "count" : 1,
            "type" : "VEC4"
        }
    ],
    "bufferViews" : [
        {
            "buffer" : 0,
            "byteLength" : 17928,
            "byteOffset" : 0
        },
        {
            "buffer" : 0,
            "byteLength" : 17928,
            "byteOffset" : 17928
        },
        {
            "buffer" : 0,
            "byteLength" : 11952,
            "byteOffset" : 35856
        },
        {
            "buffer" : 0,
            "byteLength" : 2988,
            "byteOffset" : 47808
        },
        {
            "buffer" : 0,
            "byteLength" : 4,
            "byteOffset" : 50796
        },
        {
            "buffer" : 0,
            "byteLength" : 16,
            "byteOffset" : 50800
        }
    ],
    "buffers" : [
        {
            "byteLength" : 50816,
            "uri" : "data:application/octet-stream;base64,"
        }
    ]
}
