{
    "asset" : {
        "generator" : "Khronos glTF Blender I/O v1.7.33",
        "version" : "2.0"
    },
    "scene" : 0,
    "scenes" : [
        {
            "name" : "Scene",
            "nodes" : [
                0
            ]
        }
    ],
    "nodes" : [
        {
            "mesh" : 0,
            "name" : "Cylinder.001",
            "scale" : [
                4.871689319610596,
                4.871689319610596,
                4.871689319610596
            ],
            "translation" : [
                8.017120361328125,
                17.932817459106445,
                31.96889877319336
            ]
        }
    ],
    "animations" : [
        {
            "channels" : [
                {
                    "sampler" : 0,
                    "target" : {
                        "node" : 0,
                        "path" : "rotation"
                    }
                }
            ],
            "name" : "Cylinder.001Action",
            "samplers" : [
                {
                    "input" : 28,
                    "interpolation" : "LINEAR",
                    "output" : 29
                }
            ]
        }
    ],
    "materials" : [
        {
            "doubleSided" : true,
            "emissiveFactor" : [
                0.10000000149011612,
                0.10000000149011612,
                0.10000000149011612
            ],
            "emissiveTexture" : {
                "index" : 0
            },
            "name" : "Material.001",
            "pbrMetallicRoughness" : {
                "baseColorTexture" : {
                    "index" : 1
                },
                "metallicFactor" : 0,
                "roughnessFactor" : 0.5
            }
        },
        {
            "doubleSided" : true,
            "emissiveFactor" : [
                0.10000000149011612,
                0.10000000149011612,
                0.10000000149011612
            ],
            "emissiveTexture" : {
                "index" : 2
            },
            "name" : "Zeitgeist",
            "pbrMetallicRoughness" : {
                "baseColorTexture" : {
                    "index" : 3
                },
                "metallicFactor" : 0,
                "roughnessFactor" : 0.5
            }
        },
        {
            "doubleSided" : true,
            "emissiveFactor" : [
                0.10000000149011612,
                0.10000000149011612,
                0.10000000149011612
            ],
            "emissiveTexture" : {
                "index" : 4
            },
            "name" : "pw",
            "pbrMetallicRoughness" : {
                "baseColorTexture" : {
                    "index" : 5
                },
                "metallicFactor" : 0,
                "roughnessFactor" : 0.5
            }
        },
        {
            "doubleSided" : true,
            "emissiveFactor" : [
                0.10000000149011612,
                0.10000000149011612,
                0.10000000149011612
            ],
            "emissiveTexture" : {
                "index" : 6
            },
            "name" : "dcl",
            "pbrMetallicRoughness" : {
                "baseColorTexture" : {
                    "index" : 7
                },
                "metallicFactor" : 0,
                "roughnessFactor" : 0.5
            }
        },
        {
            "doubleSided" : true,
            "name" : "ACA",
            "pbrMetallicRoughness" : {
                "baseColorTexture" : {
                    "index" : 8
                },
                "metallicFactor" : 0,
                "roughnessFactor" : 0.5
            }
        },
        {
            "doubleSided" : true,
            "name" : "MetaLive",
            "pbrMetallicRoughness" : {
                "baseColorTexture" : {
                    "index" : 9
                },
                "metallicFactor" : 0,
                "roughnessFactor" : 0.5
            }
        },
        {
            "doubleSided" : true,
            "name" : "MArs",
            "pbrMetallicRoughness" : {
                "baseColorTexture" : {
                    "index" : 10
                },
                "metallicFactor" : 0,
                "roughnessFactor" : 0.5
            }
        }
    ],
    "meshes" : [
        {
            "name" : "Cylinder.001",
            "primitives" : [
                {
                    "attributes" : {
                        "POSITION" : 0,
                        "NORMAL" : 1,
                        "TEXCOORD_0" : 2
                    },
                    "indices" : 3,
                    "material" : 0
                },
                {
                    "attributes" : {
                        "POSITION" : 4,
                        "NORMAL" : 5,
                        "TEXCOORD_0" : 6
                    },
                    "indices" : 7,
                    "material" : 1
                },
                {
                    "attributes" : {
                        "POSITION" : 8,
                        "NORMAL" : 9,
                        "TEXCOORD_0" : 10
                    },
                    "indices" : 11,
                    "material" : 2
                },
                {
                    "attributes" : {
                        "POSITION" : 12,
                        "NORMAL" : 13,
                        "TEXCOORD_0" : 14
                    },
                    "indices" : 15,
                    "material" : 3
                },
                {
                    "attributes" : {
                        "POSITION" : 16,
                        "NORMAL" : 17,
                        "TEXCOORD_0" : 18
                    },
                    "indices" : 19,
                    "material" : 4
                },
                {
                    "attributes" : {
                        "POSITION" : 20,
                        "NORMAL" : 21,
                        "TEXCOORD_0" : 22
                    },
                    "indices" : 23,
                    "material" : 5
                },
                {
                    "attributes" : {
                        "POSITION" : 24,
                        "NORMAL" : 25,
                        "TEXCOORD_0" : 26
                    },
                    "indices" : 27,
                    "material" : 6
                }
            ]
        }
    ],
    "textures" : [
        {
            "sampler" : 0,
            "source" : 0
        },
        {
            "sampler" : 0,
            "source" : 0
        },
        {
            "sampler" : 0,
            "source" : 1
        },
        {
            "sampler" : 0,
            "source" : 1
        },
        {
            "sampler" : 0,
            "source" : 2
        },
        {
            "sampler" : 0,
            "source" : 2
        },
        {
            "sampler" : 0,
            "source" : 3
        },
        {
            "sampler" : 0,
            "source" : 3
        },
        {
            "sampler" : 0,
            "source" : 4
        },
        {
            "sampler" : 0,
            "source" : 5
        },
        {
            "sampler" : 0,
            "source" : 6
        }
    ],
    "images" : [
        {
            "bufferView" : 4,
            "mimeType" : "image/png",
            "name" : "d2a163_604e81c63a454904bc80d0b20801c436_mv2"
        },
        {
            "bufferView" : 9,
            "mimeType" : "image/jpeg",
            "name" : "zeitgeist-header"
        },
        {
            "bufferView" : 14,
            "mimeType" : "image/png",
            "name" : "pw"
        },
        {
            "bufferView" : 19,
            "mimeType" : "image/jpeg",
            "name" : "dcl"
        },
        {
            "bufferView" : 24,
            "mimeType" : "image/png",
            "name" : "aca"
        },
        {
            "bufferView" : 29,
            "mimeType" : "image/png",
            "name" : "Banner"
        },
        {
            "bufferView" : 34,
            "mimeType" : "image/png",
            "name" : "Mars"
        }
    ],
    "accessors" : [
        {
            "bufferView" : 0,
            "componentType" : 5126,
            "count" : 166,
            "max" : [
                0.9999999403953552,
                0.18826782703399658,
                1
            ],
            "min" : [
                -1.0000001192092896,
                -0.25,
                -1
            ],
            "type" : "VEC3"
        },
        {
            "bufferView" : 1,
            "componentType" : 5126,
            "count" : 166,
            "type" : "VEC3"
        },
        {
            "bufferView" : 2,
            "componentType" : 5126,
            "count" : 166,
            "type" : "VEC2"
        },
        {
            "bufferView" : 3,
            "componentType" : 5123,
            "count" : 192,
            "type" : "SCALAR"
        },
        {
            "bufferView" : 5,
            "componentType" : 5126,
            "count" : 178,
            "max" : [
                0.9999999403953552,
                -0.4275349974632263,
                1
            ],
            "min" : [
                -1.0000001192092896,
                -0.8658028244972229,
                -1
            ],
            "type" : "VEC3"
        },
        {
            "bufferView" : 6,
            "componentType" : 5126,
            "count" : 178,
            "type" : "VEC3"
        },
        {
            "bufferView" : 7,
            "componentType" : 5126,
            "count" : 178,
            "type" : "VEC2"
        },
        {
            "bufferView" : 8,
            "componentType" : 5123,
            "count" : 192,
            "type" : "SCALAR"
        },
        {
            "bufferView" : 10,
            "componentType" : 5126,
            "count" : 184,
            "max" : [
                0.9999999403953552,
                -1.0433378219604492,
                1
            ],
            "min" : [
                -1.0000001192092896,
                -1.4816056489944458,
                -1
            ],
            "type" : "VEC3"
        },
        {
            "bufferView" : 11,
            "componentType" : 5126,
            "count" : 184,
            "type" : "VEC3"
        },
        {
            "bufferView" : 12,
            "componentType" : 5126,
            "count" : 184,
            "type" : "VEC2"
        },
        {
            "bufferView" : 13,
            "componentType" : 5123,
            "count" : 192,
            "type" : "SCALAR"
        },
        {
            "bufferView" : 15,
            "componentType" : 5126,
            "count" : 184,
            "max" : [
                0.9999999403953552,
                0.8040707111358643,
                1
            ],
            "min" : [
                -1.0000001192092896,
                0.3658028542995453,
                -1
            ],
            "type" : "VEC3"
        },
        {
            "bufferView" : 16,
            "componentType" : 5126,
            "count" : 184,
            "type" : "VEC3"
        },
        {
            "bufferView" : 17,
            "componentType" : 5126,
            "count" : 184,
            "type" : "VEC2"
        },
        {
            "bufferView" : 18,
            "componentType" : 5123,
            "count" : 192,
            "type" : "SCALAR"
        },
        {
            "bufferView" : 20,
            "componentType" : 5126,
            "count" : 180,
            "max" : [
                0.9999999403953552,
                -1.6591405868530273,
                1
            ],
            "min" : [
                -1.0000001192092896,
                -2.0974085330963135,
                -1
            ],
            "type" : "VEC3"
        },
        {
            "bufferView" : 21,
            "componentType" : 5126,
            "count" : 180,
            "type" : "VEC3"
        },
        {
            "bufferView" : 22,
            "componentType" : 5126,
            "count" : 180,
            "type" : "VEC2"
        },
        {
            "bufferView" : 23,
            "componentType" : 5123,
            "count" : 192,
            "type" : "SCALAR"
        },
        {
            "bufferView" : 25,
            "componentType" : 5126,
            "count" : 176,
            "max" : [
                0.9999999403953552,
                -2.8907463550567627,
                1
            ],
            "min" : [
                -1.0000001192092896,
                -3.3290140628814697,
                -1
            ],
            "type" : "VEC3"
        },
        {
            "bufferView" : 26,
            "componentType" : 5126,
            "count" : 176,
            "type" : "VEC3"
        },
        {
            "bufferView" : 27,
            "componentType" : 5126,
            "count" : 176,
            "type" : "VEC2"
        },
        {
            "bufferView" : 28,
            "componentType" : 5123,
            "count" : 192,
            "type" : "SCALAR"
        },
        {
            "bufferView" : 30,
            "componentType" : 5126,
            "count" : 184,
            "max" : [
                0.9999999403953552,
                -2.2749433517456055,
                1
            ],
            "min" : [
                -1.0000001192092896,
                -2.7132112979888916,
                -1
            ],
            "type" : "VEC3"
        },
        {
            "bufferView" : 31,
            "componentType" : 5126,
            "count" : 184,
            "type" : "VEC3"
        },
        {
            "bufferView" : 32,
            "componentType" : 5126,
            "count" : 184,
            "type" : "VEC2"
        },
        {
            "bufferView" : 33,
            "componentType" : 5123,
            "count" : 192,
            "type" : "SCALAR"
        },
        {
            "bufferView" : 35,
            "componentType" : 5126,
            "count" : 504,
            "max" : [
                20.958333333333332
            ],
            "min" : [
                0
            ],
            "type" : "SCALAR"
        },
        {
            "bufferView" : 36,
            "componentType" : 5126,
            "count" : 504,
            "type" : "VEC4"
        }
    ],
    "bufferViews" : [
        {
            "buffer" : 0,
            "byteLength" : 1992,
            "byteOffset" : 0
        },
        {
            "buffer" : 0,
            "byteLength" : 1992,
            "byteOffset" : 1992
        },
        {
            "buffer" : 0,
            "byteLength" : 1328,
            "byteOffset" : 3984
        },
        {
            "buffer" : 0,
            "byteLength" : 384,
            "byteOffset" : 5312
        },
        {
            "buffer" : 0,
            "byteLength" : 28467,
            "byteOffset" : 5696
        },
        {
            "buffer" : 0,
            "byteLength" : 2136,
            "byteOffset" : 34164
        },
        {
            "buffer" : 0,
            "byteLength" : 2136,
            "byteOffset" : 36300
        },
        {
            "buffer" : 0,
            "byteLength" : 1424,
            "byteOffset" : 38436
        },
        {
            "buffer" : 0,
            "byteLength" : 384,
            "byteOffset" : 39860
        },
        {
            "buffer" : 0,
            "byteLength" : 8128,
            "byteOffset" : 40244
        },
        {
            "buffer" : 0,
            "byteLength" : 2208,
            "byteOffset" : 48372
        },
        {
            "buffer" : 0,
            "byteLength" : 2208,
            "byteOffset" : 50580
        },
        {
            "buffer" : 0,
            "byteLength" : 1472,
            "byteOffset" : 52788
        },
        {
            "buffer" : 0,
            "byteLength" : 384,
            "byteOffset" : 54260
        },
        {
            "buffer" : 0,
            "byteLength" : 1885,
            "byteOffset" : 54644
        },
        {
            "buffer" : 0,
            "byteLength" : 2208,
            "byteOffset" : 56532
        },
        {
            "buffer" : 0,
            "byteLength" : 2208,
            "byteOffset" : 58740
        },
        {
            "buffer" : 0,
            "byteLength" : 1472,
            "byteOffset" : 60948
        },
        {
            "buffer" : 0,
            "byteLength" : 384,
            "byteOffset" : 62420
        },
        {
            "buffer" : 0,
            "byteLength" : 54705,
            "byteOffset" : 62804
        },
        {
            "buffer" : 0,
            "byteLength" : 2160,
            "byteOffset" : 117512
        },
        {
            "buffer" : 0,
            "byteLength" : 2160,
            "byteOffset" : 119672
        },
        {
            "buffer" : 0,
            "byteLength" : 1440,
            "byteOffset" : 121832
        },
        {
            "buffer" : 0,
            "byteLength" : 384,
            "byteOffset" : 123272
        },
        {
            "buffer" : 0,
            "byteLength" : 33664,
            "byteOffset" : 123656
        },
        {
            "buffer" : 0,
            "byteLength" : 2112,
            "byteOffset" : 157320
        },
        {
            "buffer" : 0,
            "byteLength" : 2112,
            "byteOffset" : 159432
        },
        {
            "buffer" : 0,
            "byteLength" : 1408,
            "byteOffset" : 161544
        },
        {
            "buffer" : 0,
            "byteLength" : 384,
            "byteOffset" : 162952
        },
        {
            "buffer" : 0,
            "byteLength" : 68148,
            "byteOffset" : 163336
        },
        {
            "buffer" : 0,
            "byteLength" : 2208,
            "byteOffset" : 231484
        },
        {
            "buffer" : 0,
            "byteLength" : 2208,
            "byteOffset" : 233692
        },
        {
            "buffer" : 0,
            "byteLength" : 1472,
            "byteOffset" : 235900
        },
        {
            "buffer" : 0,
            "byteLength" : 384,
            "byteOffset" : 237372
        },
        {
            "buffer" : 0,
            "byteLength" : 50508,
            "byteOffset" : 237756
        },
        {
            "buffer" : 0,
            "byteLength" : 2016,
            "byteOffset" : 288264
        },
        {
            "buffer" : 0,
            "byteLength" : 8064,
            "byteOffset" : 290280
        }
    ],
    "samplers" : [
        {
            "magFilter" : 9729,
            "minFilter" : 9987
        }
    ],
    "buffers" : [
        {
            "byteLength" : 298344,
            "uri" : "data:application/octet-stream;base64,"
        }
    ]
}
