{
    "asset" : {
        "generator" : "Khronos glTF Blender I/O v1.7.33",
        "version" : "2.0"
    },
    "scene" : 0,
    "scenes" : [
        {
            "name" : "Scene",
            "nodes" : [
                0
            ]
        }
    ],
    "nodes" : [
        {
            "mesh" : 0,
            "name" : "MetaDogeHQ",
            "rotation" : [
                0.6751660704612732,
                0,
                0,
                0.7376657724380493
            ],
            "scale" : [
                0.3031843900680542,
                0.30318450927734375,
                0.30318453907966614
            ],
            "translation" : [
                24.490568161010742,
                29.50385856628418,
                -26.919282913208008
            ]
        }
    ],
    "animations" : [
        {
            "channels" : [
                {
                    "sampler" : 0,
                    "target" : {
                        "node" : 0,
                        "path" : "rotation"
                    }
                }
            ],
            "name" : "MDP.001Action",
            "samplers" : [
                {
                    "input" : 8,
                    "interpolation" : "LINEAR",
                    "output" : 9
                }
            ]
        }
    ],
    "materials" : [
        {
            "doubleSided" : true,
            "name" : "GoldMetal",
            "pbrMetallicRoughness" : {
                "baseColorFactor" : [
                    1,
                    0.6114969253540039,
                    0,
                    1
                ],
                "metallicFactor" : 0.25217390060424805
            }
        },
        {
            "doubleSided" : true,
            "emissiveFactor" : [
                0.3972215950489044,
                0.3972215950489044,
                0.3972215950489044
            ],
            "name" : "Whitelight",
            "pbrMetallicRoughness" : {
                "metallicFactor" : 0.10000000149011612,
                "roughnessFactor" : 0.6599999666213989
            }
        }
    ],
    "meshes" : [
        {
            "name" : "Mesh_0.076",
            "primitives" : [
                {
                    "attributes" : {
                        "POSITION" : 0,
                        "NORMAL" : 1,
                        "TEXCOORD_0" : 2
                    },
                    "indices" : 3,
                    "material" : 0
                },
                {
                    "attributes" : {
                        "POSITION" : 4,
                        "NORMAL" : 5,
                        "TEXCOORD_0" : 6
                    },
                    "indices" : 7,
                    "material" : 1
                }
            ]
        }
    ],
    "accessors" : [
        {
            "bufferView" : 0,
            "componentType" : 5126,
            "count" : 776,
            "max" : [
                13.726930618286133,
                10.982321739196777,
                23.57164192199707
            ],
            "min" : [
                -14.01436996459961,
                -16.66592025756836,
                20.180904388427734
            ],
            "type" : "VEC3"
        },
        {
            "bufferView" : 1,
            "componentType" : 5126,
            "count" : 776,
            "type" : "VEC3"
        },
        {
            "bufferView" : 2,
            "componentType" : 5126,
            "count" : 776,
            "type" : "VEC2"
        },
        {
            "bufferView" : 3,
            "componentType" : 5123,
            "count" : 1164,
            "type" : "SCALAR"
        },
        {
            "bufferView" : 4,
            "componentType" : 5126,
            "count" : 420,
            "max" : [
                10.25182819366455,
                11.689969062805176,
                23.57164192199707
            ],
            "min" : [
                -10.539267539978027,
                -14.642996788024902,
                -12.036109924316406
            ],
            "type" : "VEC3"
        },
        {
            "bufferView" : 5,
            "componentType" : 5126,
            "count" : 420,
            "type" : "VEC3"
        },
        {
            "bufferView" : 6,
            "componentType" : 5126,
            "count" : 420,
            "type" : "VEC2"
        },
        {
            "bufferView" : 7,
            "componentType" : 5123,
            "count" : 420,
            "type" : "SCALAR"
        },
        {
            "bufferView" : 8,
            "componentType" : 5126,
            "count" : 1003,
            "max" : [
                33.4
            ],
            "min" : [
                0
            ],
            "type" : "SCALAR"
        },
        {
            "bufferView" : 9,
            "componentType" : 5126,
            "count" : 1003,
            "type" : "VEC4"
        }
    ],
    "bufferViews" : [
        {
            "buffer" : 0,
            "byteLength" : 9312,
            "byteOffset" : 0
        },
        {
            "buffer" : 0,
            "byteLength" : 9312,
            "byteOffset" : 9312
        },
        {
            "buffer" : 0,
            "byteLength" : 6208,
            "byteOffset" : 18624
        },
        {
            "buffer" : 0,
            "byteLength" : 2328,
            "byteOffset" : 24832
        },
        {
            "buffer" : 0,
            "byteLength" : 5040,
            "byteOffset" : 27160
        },
        {
            "buffer" : 0,
            "byteLength" : 5040,
            "byteOffset" : 32200
        },
        {
            "buffer" : 0,
            "byteLength" : 3360,
            "byteOffset" : 37240
        },
        {
            "buffer" : 0,
            "byteLength" : 840,
            "byteOffset" : 40600
        },
        {
            "buffer" : 0,
            "byteLength" : 4012,
            "byteOffset" : 41440
        },
        {
            "buffer" : 0,
            "byteLength" : 16048,
            "byteOffset" : 45452
        }
    ],
    "buffers" : [
        {
            "byteLength" : 61500,
            "uri" : "data:application/octet-stream;base64,"
        }
    ]
}
