{
    "asset" : {
        "generator" : "Khronos glTF Blender I/O v1.7.33",
        "version" : "2.0"
    },
    "scene" : 0,
    "scenes" : [
        {
            "name" : "Scene",
            "nodes" : [
                1
            ]
        }
    ],
    "nodes" : [
        {
            "mesh" : 0,
            "name" : "Pad_collider"
        },
        {
            "children" : [
                0
            ],
            "mesh" : 1,
            "name" : "Pad.001",
            "scale" : [
                0.694444477558136,
                1,
                2.451765537261963
            ],
            "translation" : [
                0.00022125244140625,
                0,
                0
            ]
        }
    ],
    "animations" : [
        {
            "channels" : [
                {
                    "sampler" : 0,
                    "target" : {
                        "node" : 1,
                        "path" : "translation"
                    }
                },
                {
                    "sampler" : 1,
                    "target" : {
                        "node" : 1,
                        "path" : "rotation"
                    }
                },
                {
                    "sampler" : 2,
                    "target" : {
                        "node" : 1,
                        "path" : "scale"
                    }
                }
            ],
            "name" : "Pad.001Action.002",
            "samplers" : [
                {
                    "input" : 15,
                    "interpolation" : "LINEAR",
                    "output" : 16
                },
                {
                    "input" : 17,
                    "interpolation" : "LINEAR",
                    "output" : 18
                },
                {
                    "input" : 17,
                    "interpolation" : "LINEAR",
                    "output" : 19
                }
            ]
        }
    ],
    "materials" : [
        {
            "doubleSided" : true,
            "name" : "Metal(cnwhc.com)\u62c9\u4e1d\u9ec4\u91d1_5cm.006",
            "pbrMetallicRoughness" : {
                "baseColorFactor" : [
                    0.8277000188827515,
                    0.5479999780654907,
                    0,
                    1
                ],
                "metallicFactor" : 0.75,
                "roughnessFactor" : 0
            }
        },
        {
            "doubleSided" : true,
            "emissiveFactor" : [
                1,
                1,
                1
            ],
            "emissiveTexture" : {
                "index" : 0
            },
            "name" : "AtlasLight",
            "pbrMetallicRoughness" : {
                "metallicFactor" : 0
            }
        }
    ],
    "meshes" : [
        {
            "name" : "Mesh_0.138",
            "primitives" : [
                {
                    "attributes" : {
                        "POSITION" : 0,
                        "NORMAL" : 1,
                        "TANGENT" : 2,
                        "TEXCOORD_0" : 3
                    },
                    "indices" : 4
                }
            ]
        },
        {
            "name" : "Mesh_0.117",
            "primitives" : [
                {
                    "attributes" : {
                        "POSITION" : 5,
                        "NORMAL" : 6,
                        "TANGENT" : 7,
                        "TEXCOORD_0" : 8
                    },
                    "indices" : 9,
                    "material" : 0
                },
                {
                    "attributes" : {
                        "POSITION" : 10,
                        "NORMAL" : 11,
                        "TANGENT" : 12,
                        "TEXCOORD_0" : 13
                    },
                    "indices" : 14,
                    "material" : 1
                }
            ]
        }
    ],
    "textures" : [
        {
            "sampler" : 0,
            "source" : 0
        }
    ],
    "images" : [
        {
            "bufferView" : 15,
            "mimeType" : "image/png",
            "name" : "AtlasLight"
        }
    ],
    "accessors" : [
        {
            "bufferView" : 0,
            "componentType" : 5126,
            "count" : 1449,
            "max" : [
                2.1022748947143555,
                1.1228041648864746,
                0.6146631240844727
            ],
            "min" : [
                -2.2177248001098633,
                0.09967345744371414,
                -0.6089448928833008
            ],
            "type" : "VEC3"
        },
        {
            "bufferView" : 1,
            "componentType" : 5126,
            "count" : 1449,
            "type" : "VEC3"
        },
        {
            "bufferView" : 2,
            "componentType" : 5126,
            "count" : 1449,
            "type" : "VEC4"
        },
        {
            "bufferView" : 3,
            "componentType" : 5126,
            "count" : 1449,
            "type" : "VEC2"
        },
        {
            "bufferView" : 4,
            "componentType" : 5123,
            "count" : 2592,
            "type" : "SCALAR"
        },
        {
            "bufferView" : 5,
            "componentType" : 5126,
            "count" : 872,
            "max" : [
                2.1022748947143555,
                0.30217382311820984,
                0.6146631240844727
            ],
            "min" : [
                -2.2177248001098633,
                0.09967345744371414,
                -0.6089448928833008
            ],
            "type" : "VEC3"
        },
        {
            "bufferView" : 6,
            "componentType" : 5126,
            "count" : 872,
            "type" : "VEC3"
        },
        {
            "bufferView" : 7,
            "componentType" : 5126,
            "count" : 872,
            "type" : "VEC4"
        },
        {
            "bufferView" : 8,
            "componentType" : 5126,
            "count" : 872,
            "type" : "VEC2"
        },
        {
            "bufferView" : 9,
            "componentType" : 5123,
            "count" : 1302,
            "type" : "SCALAR"
        },
        {
            "bufferView" : 10,
            "componentType" : 5126,
            "count" : 264,
            "max" : [
                1.6873705387115479,
                0.6727951765060425,
                0.4971449077129364
            ],
            "min" : [
                -1.8028216361999512,
                0.30217382311820984,
                -0.49142661690711975
            ],
            "type" : "VEC3"
        },
        {
            "bufferView" : 11,
            "componentType" : 5126,
            "count" : 264,
            "type" : "VEC3"
        },
        {
            "bufferView" : 12,
            "componentType" : 5126,
            "count" : 264,
            "type" : "VEC4"
        },
        {
            "bufferView" : 13,
            "componentType" : 5126,
            "count" : 264,
            "type" : "VEC2"
        },
        {
            "bufferView" : 14,
            "componentType" : 5123,
            "count" : 330,
            "type" : "SCALAR"
        },
        {
            "bufferView" : 16,
            "componentType" : 5126,
            "count" : 6997,
            "max" : [
                291.5
            ],
            "min" : [
                0
            ],
            "type" : "SCALAR"
        },
        {
            "bufferView" : 17,
            "componentType" : 5126,
            "count" : 6997,
            "type" : "VEC3"
        },
        {
            "bufferView" : 18,
            "componentType" : 5126,
            "count" : 2,
            "max" : [
                291.5
            ],
            "min" : [
                0
            ],
            "type" : "SCALAR"
        },
        {
            "bufferView" : 19,
            "componentType" : 5126,
            "count" : 2,
            "type" : "VEC4"
        },
        {
            "bufferView" : 20,
            "componentType" : 5126,
            "count" : 2,
            "type" : "VEC3"
        }
    ],
    "bufferViews" : [
        {
            "buffer" : 0,
            "byteLength" : 17388,
            "byteOffset" : 0
        },
        {
            "buffer" : 0,
            "byteLength" : 17388,
            "byteOffset" : 17388
        },
        {
            "buffer" : 0,
            "byteLength" : 23184,
            "byteOffset" : 34776
        },
        {
            "buffer" : 0,
            "byteLength" : 11592,
            "byteOffset" : 57960
        },
        {
            "buffer" : 0,
            "byteLength" : 5184,
            "byteOffset" : 69552
        },
        {
            "buffer" : 0,
            "byteLength" : 10464,
            "byteOffset" : 74736
        },
        {
            "buffer" : 0,
            "byteLength" : 10464,
            "byteOffset" : 85200
        },
        {
            "buffer" : 0,
            "byteLength" : 13952,
            "byteOffset" : 95664
        },
        {
            "buffer" : 0,
            "byteLength" : 6976,
            "byteOffset" : 109616
        },
        {
            "buffer" : 0,
            "byteLength" : 2604,
            "byteOffset" : 116592
        },
        {
            "buffer" : 0,
            "byteLength" : 3168,
            "byteOffset" : 119196
        },
        {
            "buffer" : 0,
            "byteLength" : 3168,
            "byteOffset" : 122364
        },
        {
            "buffer" : 0,
            "byteLength" : 4224,
            "byteOffset" : 125532
        },
        {
            "buffer" : 0,
            "byteLength" : 2112,
            "byteOffset" : 129756
        },
        {
            "buffer" : 0,
            "byteLength" : 660,
            "byteOffset" : 131868
        },
        {
            "buffer" : 0,
            "byteLength" : 16050,
            "byteOffset" : 132528
        },
        {
            "buffer" : 0,
            "byteLength" : 27988,
            "byteOffset" : 148580
        },
        {
            "buffer" : 0,
            "byteLength" : 83964,
            "byteOffset" : 176568
        },
        {
            "buffer" : 0,
            "byteLength" : 8,
            "byteOffset" : 260532
        },
        {
            "buffer" : 0,
            "byteLength" : 32,
            "byteOffset" : 260540
        },
        {
            "buffer" : 0,
            "byteLength" : 24,
            "byteOffset" : 260572
        }
    ],
    "samplers" : [
        {
            "magFilter" : 9729,
            "minFilter" : 9987
        }
    ],
    "buffers" : [
        {
            "byteLength" : 260596,
            "uri" : "data:application/octet-stream;base64,"
        }
    ]
}
