{
    "asset" : {
        "generator" : "Khronos glTF Blender I/O v1.7.33",
        "version" : "2.0"
    },
    "scene" : 0,
    "scenes" : [
        {
            "name" : "Scene",
            "nodes" : [
                1
            ]
        }
    ],
    "nodes" : [
        {
            "mesh" : 0,
            "name" : "ufo_collider"
        },
        {
            "children" : [
                0
            ],
            "mesh" : 1,
            "name" : "ufo",
            "translation" : [
                39.92644500732422,
                12.44999885559082,
                32.038360595703125
            ]
        }
    ],
    "animations" : [
        {
            "channels" : [
                {
                    "sampler" : 0,
                    "target" : {
                        "node" : 1,
                        "path" : "translation"
                    }
                },
                {
                    "sampler" : 1,
                    "target" : {
                        "node" : 1,
                        "path" : "rotation"
                    }
                }
            ],
            "name" : "ufoAction",
            "samplers" : [
                {
                    "input" : 18,
                    "interpolation" : "LINEAR",
                    "output" : 19
                },
                {
                    "input" : 20,
                    "interpolation" : "LINEAR",
                    "output" : 21
                }
            ]
        },
        {
            "channels" : [
                {
                    "sampler" : 0,
                    "target" : {
                        "node" : 0,
                        "path" : "translation"
                    }
                }
            ],
            "name" : "ufo_colliderAction",
            "samplers" : [
                {
                    "input" : 22,
                    "interpolation" : "LINEAR",
                    "output" : 23
                }
            ]
        }
    ],
    "materials" : [
        {
            "doubleSided" : true,
            "name" : "M00 \u8272.005",
            "pbrMetallicRoughness" : {
                "metallicFactor" : 0.10000000149011612,
                "roughnessFactor" : 0.8999999761581421
            }
        },
        {
            "doubleSided" : true,
            "emissiveFactor" : [
                0,
                0.012482402846217155,
                0.07777542620897293
            ],
            "name" : "0066 \u8702\u871c\u8272",
            "pbrMetallicRoughness" : {
                "baseColorFactor" : [
                    0,
                    0.6920710802078247,
                    0.6418285369873047,
                    1
                ],
                "metallicFactor" : 0,
                "roughnessFactor" : 0.10000000149011612
            }
        },
        {
            "doubleSided" : true,
            "name" : "M00 \u8272.004",
            "pbrMetallicRoughness" : {
                "metallicFactor" : 0.10000000149011612,
                "roughnessFactor" : 0.8999999761581421
            }
        },
        {
            "doubleSided" : true,
            "name" : "Lisanne_Tool_Bag_01",
            "pbrMetallicRoughness" : {
                "baseColorFactor" : [
                    0.005499999970197678,
                    0.006000000052154064,
                    0.00839999970048666,
                    1
                ],
                "metallicFactor" : 0.10000000149011612,
                "roughnessFactor" : 0.8999999761581421
            }
        },
        {
            "alphaMode" : "BLEND",
            "doubleSided" : true,
            "name" : "0087 \u84dd\u7eff\u8272",
            "pbrMetallicRoughness" : {
                "baseColorFactor" : [
                    1,
                    0.8434000015258789,
                    0.2757999897003174,
                    0.5
                ],
                "metallicFactor" : 0.10000000149011612,
                "roughnessFactor" : 0.8999999761581421
            }
        },
        {
            "doubleSided" : true,
            "emissiveFactor" : [
                1,
                0.6578450798988342,
                0
            ],
            "name" : "Material.002",
            "pbrMetallicRoughness" : {
                "baseColorFactor" : [
                    0.14494217932224274,
                    0.7907872200012207,
                    0.8000000715255737,
                    1
                ],
                "metallicFactor" : 0,
                "roughnessFactor" : 0.5
            }
        }
    ],
    "meshes" : [
        {
            "name" : "Mesh_0.011",
            "primitives" : [
                {
                    "attributes" : {
                        "POSITION" : 0,
                        "NORMAL" : 1
                    },
                    "indices" : 2,
                    "material" : 0
                }
            ]
        },
        {
            "name" : "Mesh_0.007",
            "primitives" : [
                {
                    "attributes" : {
                        "POSITION" : 3,
                        "NORMAL" : 4
                    },
                    "indices" : 5,
                    "material" : 1
                },
                {
                    "attributes" : {
                        "POSITION" : 6,
                        "NORMAL" : 7
                    },
                    "indices" : 8,
                    "material" : 2
                },
                {
                    "attributes" : {
                        "POSITION" : 9,
                        "NORMAL" : 10
                    },
                    "indices" : 11,
                    "material" : 3
                },
                {
                    "attributes" : {
                        "POSITION" : 12,
                        "NORMAL" : 13
                    },
                    "indices" : 14,
                    "material" : 4
                },
                {
                    "attributes" : {
                        "POSITION" : 15,
                        "NORMAL" : 16
                    },
                    "indices" : 17,
                    "material" : 5
                }
            ]
        }
    ],
    "accessors" : [
        {
            "bufferView" : 0,
            "componentType" : 5126,
            "count" : 2484,
            "max" : [
                3.1244828701019287,
                0.8447440266609192,
                3.132960557937622
            ],
            "min" : [
                -3.1303610801696777,
                -1.224930682737881e-14,
                -3.132270097732544
            ],
            "type" : "VEC3"
        },
        {
            "bufferView" : 1,
            "componentType" : 5126,
            "count" : 2484,
            "type" : "VEC3"
        },
        {
            "bufferView" : 2,
            "componentType" : 5123,
            "count" : 4518,
            "type" : "SCALAR"
        },
        {
            "bufferView" : 3,
            "componentType" : 5126,
            "count" : 4256,
            "max" : [
                3.100910186767578,
                0.8447440266609192,
                3.100910186767578
            ],
            "min" : [
                -3.100910186767578,
                -1.2226746951861638e-14,
                -3.100910186767578
            ],
            "type" : "VEC3"
        },
        {
            "bufferView" : 4,
            "componentType" : 5126,
            "count" : 4256,
            "type" : "VEC3"
        },
        {
            "bufferView" : 5,
            "componentType" : 5123,
            "count" : 6633,
            "type" : "SCALAR"
        },
        {
            "bufferView" : 6,
            "componentType" : 5126,
            "count" : 443,
            "max" : [
                2.0765578746795654,
                0.8447440266609192,
                2.0765578746795654
            ],
            "min" : [
                -2.0765578746795654,
                0.08484214544296265,
                -2.0765578746795654
            ],
            "type" : "VEC3"
        },
        {
            "bufferView" : 7,
            "componentType" : 5126,
            "count" : 443,
            "type" : "VEC3"
        },
        {
            "bufferView" : 8,
            "componentType" : 5123,
            "count" : 912,
            "type" : "SCALAR"
        },
        {
            "bufferView" : 9,
            "componentType" : 5126,
            "count" : 312,
            "max" : [
                3.128206968307495,
                0.583902895450592,
                3.128206968307495
            ],
            "min" : [
                -3.128206968307495,
                0.5254878997802734,
                -3.128206968307495
            ],
            "type" : "VEC3"
        },
        {
            "bufferView" : 10,
            "componentType" : 5126,
            "count" : 312,
            "type" : "VEC3"
        },
        {
            "bufferView" : 11,
            "componentType" : 5123,
            "count" : 1728,
            "type" : "SCALAR"
        },
        {
            "bufferView" : 12,
            "componentType" : 5126,
            "count" : 506,
            "max" : [
                2.0765578746795654,
                1.8591099977493286,
                2.0765578746795654
            ],
            "min" : [
                -2.0765578746795654,
                0.8447440266609192,
                -2.0765578746795654
            ],
            "type" : "VEC3"
        },
        {
            "bufferView" : 13,
            "componentType" : 5126,
            "count" : 506,
            "type" : "VEC3"
        },
        {
            "bufferView" : 14,
            "componentType" : 5123,
            "count" : 2724,
            "type" : "SCALAR"
        },
        {
            "bufferView" : 15,
            "componentType" : 5126,
            "count" : 117,
            "max" : [
                2.047031879425049,
                0.20274700224399567,
                2.047031879425049
            ],
            "min" : [
                -2.047031879425049,
                -1.2226746951861638e-14,
                -2.047031879425049
            ],
            "type" : "VEC3"
        },
        {
            "bufferView" : 16,
            "componentType" : 5126,
            "count" : 117,
            "type" : "VEC3"
        },
        {
            "bufferView" : 17,
            "componentType" : 5123,
            "count" : 117,
            "type" : "SCALAR"
        },
        {
            "bufferView" : 18,
            "componentType" : 5126,
            "count" : 1600,
            "max" : [
                66.625
            ],
            "min" : [
                0
            ],
            "type" : "SCALAR"
        },
        {
            "bufferView" : 19,
            "componentType" : 5126,
            "count" : 1600,
            "type" : "VEC3"
        },
        {
            "bufferView" : 20,
            "componentType" : 5126,
            "count" : 2,
            "max" : [
                24.958333333333332
            ],
            "min" : [
                20.833333333333332
            ],
            "type" : "SCALAR"
        },
        {
            "bufferView" : 21,
            "componentType" : 5126,
            "count" : 2,
            "type" : "VEC4"
        },
        {
            "bufferView" : 22,
            "componentType" : 5126,
            "count" : 2,
            "max" : [
                8.333333333333334
            ],
            "min" : [
                0
            ],
            "type" : "SCALAR"
        },
        {
            "bufferView" : 23,
            "componentType" : 5126,
            "count" : 2,
            "type" : "VEC3"
        }
    ],
    "bufferViews" : [
        {
            "buffer" : 0,
            "byteLength" : 29808,
            "byteOffset" : 0
        },
        {
            "buffer" : 0,
            "byteLength" : 29808,
            "byteOffset" : 29808
        },
        {
            "buffer" : 0,
            "byteLength" : 9036,
            "byteOffset" : 59616
        },
        {
            "buffer" : 0,
            "byteLength" : 51072,
            "byteOffset" : 68652
        },
        {
            "buffer" : 0,
            "byteLength" : 51072,
            "byteOffset" : 119724
        },
        {
            "buffer" : 0,
            "byteLength" : 13266,
            "byteOffset" : 170796
        },
        {
            "buffer" : 0,
            "byteLength" : 5316,
            "byteOffset" : 184064
        },
        {
            "buffer" : 0,
            "byteLength" : 5316,
            "byteOffset" : 189380
        },
        {
            "buffer" : 0,
            "byteLength" : 1824,
            "byteOffset" : 194696
        },
        {
            "buffer" : 0,
            "byteLength" : 3744,
            "byteOffset" : 196520
        },
        {
            "buffer" : 0,
            "byteLength" : 3744,
            "byteOffset" : 200264
        },
        {
            "buffer" : 0,
            "byteLength" : 3456,
            "byteOffset" : 204008
        },
        {
            "buffer" : 0,
            "byteLength" : 6072,
            "byteOffset" : 207464
        },
        {
            "buffer" : 0,
            "byteLength" : 6072,
            "byteOffset" : 213536
        },
        {
            "buffer" : 0,
            "byteLength" : 5448,
            "byteOffset" : 219608
        },
        {
            "buffer" : 0,
            "byteLength" : 1404,
            "byteOffset" : 225056
        },
        {
            "buffer" : 0,
            "byteLength" : 1404,
            "byteOffset" : 226460
        },
        {
            "buffer" : 0,
            "byteLength" : 234,
            "byteOffset" : 227864
        },
        {
            "buffer" : 0,
            "byteLength" : 6400,
            "byteOffset" : 228100
        },
        {
            "buffer" : 0,
            "byteLength" : 19200,
            "byteOffset" : 234500
        },
        {
            "buffer" : 0,
            "byteLength" : 8,
            "byteOffset" : 253700
        },
        {
            "buffer" : 0,
            "byteLength" : 32,
            "byteOffset" : 253708
        },
        {
            "buffer" : 0,
            "byteLength" : 8,
            "byteOffset" : 253740
        },
        {
            "buffer" : 0,
            "byteLength" : 24,
            "byteOffset" : 253748
        }
    ],
    "buffers" : [
        {
            "byteLength" : 253772,
            "uri" : "data:application/octet-stream;base64,"
        }
    ]
}
